<?xml version="1.0" standalone="no"?>
<!DOCTYPE svg PUBLIC "-//W3C//DTD SVG 20010904//EN"
 "http://www.w3.org/TR/2001/REC-SVG-20010904/DTD/svg10.dtd">
<svg version="1.0" xmlns="http://www.w3.org/2000/svg"
 width="498.000000pt" height="501.000000pt" viewBox="0 0 498.000000 501.000000"
 preserveAspectRatio="xMidYMid meet">

<g transform="translate(0.000000,501.000000) scale(0.100000,-0.100000)"
fill="#000000" stroke="none">
<path d="M1983 4556 c-72 -79 -133 -180 -164 -271 -20 -60 -24 -89 -24 -200 0
-71 4 -151 9 -176 8 -43 7 -47 -12 -53 -41 -13 -68 18 -87 100 -22 95 -16 188
20 298 24 74 25 80 9 97 -10 11 -20 19 -24 19 -4 0 -17 -22 -29 -49 -11 -27
-32 -57 -45 -68 -15 -10 -27 -32 -30 -51 -2 -19 -6 -35 -8 -37 -20 -20 -175
-106 -206 -116 -45 -13 -50 -20 -29 -38 9 -7 24 -8 47 -1 36 10 50 6 50 -14 0
-8 -15 -16 -32 -18 -27 -4 -41 1 -77 31 -39 32 -50 36 -100 35 -113 -1 -206
-101 -139 -148 35 -25 96 -19 162 14 33 17 61 28 63 26 2 -2 -27 -23 -64 -46
-37 -23 -73 -49 -80 -57 -17 -22 -59 -9 -100 32 -18 18 -33 42 -33 54 0 26
-12 27 -35 1 -14 -16 -15 -24 -6 -50 8 -23 7 -36 -2 -51 -9 -15 -9 -23 1 -39
19 -31 15 -44 -29 -98 -81 -102 -172 -250 -239 -387 -37 -77 -71 -150 -74
-163 -4 -12 -22 -28 -39 -36 -29 -12 -35 -23 -64 -112 -54 -167 -58 -199 -58
-472 0 -138 -4 -252 -8 -252 -12 0 1 -162 19 -242 9 -37 29 -95 45 -128 16
-33 29 -65 29 -70 0 -6 4 -18 10 -28 5 -9 34 -70 65 -135 90 -189 272 -446
402 -567 178 -166 295 -250 484 -347 180 -93 288 -132 519 -188 111 -27 335
-47 450 -40 388 22 673 108 985 298 132 80 223 154 355 286 291 291 494 676
555 1050 16 96 16 106 1 116 -8 7 -12 16 -9 21 4 5 1 3 -7 -3 -8 -7 -25 -13
-37 -13 -24 0 -24 1 -16 63 4 34 7 141 6 239 -2 231 -35 417 -110 608 -58 150
-195 383 -293 500 -44 53 -47 65 -24 99 17 23 20 64 16 188 l-2 71 -59 -39
c-32 -21 -74 -46 -94 -54 -30 -13 -36 -13 -41 0 -3 10 16 25 65 51 70 37 78
48 46 68 -14 9 -22 6 -40 -16 -34 -41 -84 -62 -114 -49 -36 17 -105 13 -129
-7 -32 -26 -44 -55 -44 -111 0 -41 -3 -49 -15 -45 -11 5 -15 22 -15 63 0 94
58 164 164 196 18 5 18 6 1 25 -10 11 -24 20 -32 20 -20 0 -87 -36 -102 -54
-8 -9 -20 -16 -27 -16 -28 0 -204 105 -209 125 -4 11 -18 53 -32 93 l-26 74
-24 -26 c-18 -19 -21 -30 -15 -43 19 -36 42 -164 42 -233 0 -69 -15 -157 -30
-173 -4 -4 -24 0 -44 10 -32 15 -37 21 -31 43 3 14 8 62 12 108 12 182 -54
358 -192 503 -47 50 -49 51 -57 28 -5 -12 -6 -34 -3 -48 3 -14 1 -32 -4 -40
-7 -10 -2 -28 13 -55 39 -69 49 -124 44 -253 -4 -94 -9 -127 -27 -165 -29 -62
-36 -62 -12 0 42 105 37 184 -19 307 -33 74 -71 120 -129 157 -65 41 -79 38
-79 -17 0 -52 -44 -155 -93 -216 -51 -64 -140 -126 -226 -157 -43 -15 -100
-40 -126 -55 -52 -31 -114 -106 -123 -150 -8 -33 -24 -45 -34 -26 -5 8 -20 27
-34 44 -36 41 -71 136 -86 226 -11 66 -10 88 5 160 18 91 29 117 85 199 34 52
36 57 24 86 -22 52 -38 49 -101 -20z m1384 -532 c8 -21 -13 -42 -28 -27 -13
13 -5 43 11 43 6 0 13 -7 17 -16z m-1759 -11 c-4 -22 -22 -20 -26 1 -2 10 3
16 13 16 10 0 15 -7 13 -17z m1014 -23 c26 -12 50 -31 54 -42 9 -30 -45 -129
-85 -156 -91 -60 -252 -53 -319 14 -22 22 -51 17 -62 -12 -6 -14 -10 -68 -10
-120 0 -52 -4 -94 -8 -94 -23 0 -32 30 -32 109 0 167 59 262 193 312 71 27
201 21 269 -11z m1087 -36 c29 -37 27 -87 -4 -119 -25 -24 -68 -33 -91 -17
-22 15 -44 58 -44 85 0 67 98 103 139 51z m-2409 0 c0 -10 -70 -34 -101 -34
-41 0 -30 12 24 27 48 13 77 16 77 7z m316 -75 c63 -34 114 -67 114 -75 0 -8
-6 -14 -13 -14 -10 0 -222 104 -236 116 -5 5 7 34 14 34 4 0 58 -27 121 -61z
m2248 26 c-9 -14 -20 -25 -26 -25 -11 0 23 49 35 50 4 0 0 -11 -9 -25z m-2477
-5 c-14 -20 -53 -48 -121 -88 -29 -17 -42 -20 -50 -12 -8 8 -6 14 7 21 10 6
46 30 80 54 68 48 109 60 84 25z m1691 4 c12 -4 22 -13 22 -21 0 -13 -9 -15
-46 -10 -52 5 -113 -8 -115 -26 -5 -54 11 -74 103 -122 58 -31 76 -36 106 -30
20 4 42 11 49 17 8 7 31 0 73 -23 33 -17 60 -35 60 -40 0 -19 -23 -19 -64 1
-39 20 -49 21 -96 11 -50 -11 -57 -10 -119 19 -97 45 -139 77 -151 116 -23 67
20 114 104 114 28 0 61 -3 74 -6z m98 -43 c8 -8 153 -90 237 -133 36 -19 50
-48 24 -48 -8 0 -60 25 -118 56 -57 31 -121 65 -141 76 -36 19 -46 36 -31 51
9 9 17 9 29 -2z m704 -36 c-17 -25 -50 -57 -72 -71 -54 -35 -158 -43 -248 -20
-82 21 -114 44 -118 84 -4 39 12 42 30 5 28 -59 181 -82 288 -43 30 11 55 20
56 20 1 0 21 16 45 35 24 19 45 35 47 35 2 0 -11 -20 -28 -45z m-2515 25 c-3
-5 -14 -10 -23 -9 -14 0 -13 2 3 9 27 11 27 11 20 0z m555 -33 c0 -8 -14 -34
-32 -58 -17 -24 -22 -36 -11 -26 25 22 28 21 30 -3 1 -11 -12 -31 -30 -46 -28
-23 -36 -25 -81 -19 -28 3 -52 8 -55 10 -10 10 13 78 35 105 36 42 144 70 144
37z m1190 -17 c35 -18 60 -41 55 -51 -6 -9 -48 3 -95 28 -54 29 -61 34 -55 43
6 9 60 -2 95 -20z m-1519 -32 c67 -36 99 -59 99 -71 0 -20 -4 -18 -138 48 -54
27 -81 46 -81 58 -1 26 12 22 120 -35z m-428 7 c21 -4 36 -12 34 -19 -8 -25
-127 11 -127 39 0 14 3 14 28 1 15 -8 45 -17 65 -21z m1144 -91 c55 -42 133
-67 204 -66 68 1 118 20 158 61 l30 30 -5 -127 c-3 -70 -7 -135 -9 -144 -2
-10 2 -18 7 -18 7 0 6 -5 -1 -14 -7 -8 -9 -25 -6 -39 9 -35 -18 -92 -65 -137
-59 -57 -136 -74 -225 -49 -57 16 -131 92 -146 151 -10 37 -18 47 -38 51 -33
7 -61 54 -61 101 0 45 22 48 40 6 19 -47 40 -38 42 18 1 26 3 61 4 77 1 17 2
56 3 88 1 64 -2 64 68 11z m-736 -57 c52 -24 119 -54 149 -68 30 -13 87 -39
125 -59 l70 -35 3 -201 2 -201 -25 -11 -25 -12 0 158 c0 159 -6 190 -33 179
-10 -4 -15 -20 -15 -54 0 -26 -1 -107 -1 -179 -1 -131 -1 -131 -27 -143 -22
-9 -30 -8 -55 10 -44 31 -35 54 12 29 18 -10 19 -7 19 39 0 44 -4 52 -30 71
-37 26 -34 46 4 42 27 -4 27 -3 24 44 -3 42 -6 49 -28 54 -14 3 -26 14 -28 23
-3 13 4 17 27 17 29 0 31 2 31 39 0 35 -4 41 -42 64 -24 14 -46 23 -50 20 -5
-2 -8 -121 -8 -264 l0 -259 -32 -43 c-18 -24 -38 -52 -43 -62 -9 -15 -14 -16
-33 -6 -12 6 -22 19 -22 27 0 12 7 14 30 9 30 -7 30 -7 30 39 0 41 -3 48 -26
56 -39 15 -41 14 -48 -52 -7 -70 -10 -76 -34 -62 -15 10 -17 35 -19 220 0 115
-4 223 -8 239 -5 22 -18 35 -49 50 -36 17 -42 25 -47 60 -7 50 -35 115 -48
115 -7 0 -11 -26 -11 -66 0 -57 -2 -65 -17 -62 -15 3 -18 16 -21 85 -3 76 -1
83 20 97 17 11 177 94 184 96 1 0 44 -19 95 -43z m1899 -156 c0 -155 -3 -191
-15 -201 -17 -14 -20 -50 -5 -50 6 0 10 -50 10 -130 0 -71 -4 -130 -9 -130
-14 0 -20 25 -10 41 11 17 12 83 2 93 -10 9 -10 17 -12 166 l-1 119 -42 -19
c-45 -20 -55 -40 -44 -86 4 -15 14 -24 26 -24 28 0 25 -19 -5 -30 -22 -8 -25
-15 -25 -61 0 -50 0 -51 27 -44 23 5 25 4 14 -9 -8 -9 -20 -16 -27 -16 -10 0
-14 -15 -14 -55 0 -60 0 -59 48 -46 42 13 32 -6 -14 -25 -32 -14 -38 -23 -35
-51 1 -7 -3 -13 -8 -13 -6 0 -8 -8 -5 -17 4 -14 2 -13 -7 2 -7 11 -20 25 -28
32 -14 10 -16 49 -19 277 -2 146 -6 266 -9 266 -4 0 -18 -10 -79 -59 -6 -5 -9
-23 -6 -40 3 -25 9 -31 28 -31 34 0 33 -36 -1 -44 -22 -6 -25 -12 -25 -52 0
-44 1 -46 25 -40 22 6 25 3 25 -19 0 -20 -5 -25 -25 -25 -23 0 -25 -3 -25 -50
0 -49 0 -49 25 -40 22 8 25 7 25 -13 0 -32 -52 -60 -85 -45 l-25 11 0 179 c0
166 -1 179 -17 176 -16 -3 -18 -20 -21 -161 -1 -88 -7 -157 -12 -157 -5 0 -21
5 -35 12 l-25 11 0 146 c0 196 7 246 34 259 43 21 162 74 206 92 25 10 79 34
120 54 41 20 80 36 87 36 10 0 13 -42 13 -189z m-1465 157 c38 -25 43 -36 20
-44 -8 -4 -15 -12 -15 -20 0 -19 -6 -18 -51 8 -44 25 -45 26 -23 56 19 27 26
27 69 0z m989 0 c-1 -10 4 -14 11 -12 29 12 23 -16 -9 -35 -31 -19 -74 -31
-51 -13 6 4 16 15 24 25 13 16 12 16 -14 3 -27 -14 -55 -12 -55 4 0 13 64 50
80 47 8 -1 14 -10 14 -19z m894 -56 c3 -16 -2 -22 -16 -22 -24 0 -35 23 -19
39 16 16 31 8 35 -17z m-2768 -56 c0 -8 -5 -18 -11 -22 -14 -8 -33 11 -25 25
10 16 36 13 36 -3z m2728 -8 c-4 -30 -48 -39 -48 -10 0 10 3 22 7 25 3 4 15 7
25 7 14 0 19 -6 16 -22z m-2838 -81 c0 -10 4 -16 8 -13 4 2 14 1 22 -4 13 -8
12 -12 -5 -24 -11 -8 -23 -12 -26 -10 -4 2 -9 -6 -12 -17 -5 -20 -7 -20 -46
12 l-40 34 37 38 c34 34 38 36 49 20 7 -9 13 -25 13 -36z m2970 41 c0 -7 12
-25 28 -41 21 -23 24 -31 13 -35 -8 -3 -24 -15 -36 -28 -22 -24 -22 -24 -40
-4 -10 11 -26 22 -36 25 -27 9 -24 20 19 60 39 37 52 42 52 23z m-1240 -43 c0
-8 -4 -15 -10 -15 -5 0 -10 7 -10 15 0 8 5 15 10 15 6 0 10 -7 10 -15z m1030
-375 c0 -181 -2 -330 -5 -330 -3 0 -17 7 -30 16 l-25 16 0 274 c0 151 -4 274
-8 274 -4 0 -46 -16 -92 -35 -46 -19 -86 -35 -87 -35 -2 0 -4 -107 -5 -237
l-2 -238 -6 240 c-3 132 -3 251 0 264 5 20 25 31 118 66 62 24 116 45 119 49
4 3 10 6 15 6 4 0 8 -148 8 -330z m-2458 274 c90 -35 118 -50 118 -64 0 -16
-9 -14 -90 16 -89 34 -160 72 -160 87 0 12 9 9 132 -39z m774 -31 c11 -43 -35
-60 -60 -21 -8 13 -6 22 8 37 22 24 44 17 52 -16z m814 6 c0 -20 -15 -26 -25
-9 -9 15 3 43 15 35 5 -3 10 -15 10 -26z m-1800 -298 c0 -171 -4 -282 -10
-286 -5 -3 -8 -32 -5 -63 2 -31 7 -99 11 -151 l7 -94 -26 19 c-22 16 -26 27
-27 70 0 28 -3 54 -6 57 -9 8 -54 -34 -54 -50 0 -17 -17 -15 -65 7 l-40 18 28
11 c24 9 27 16 27 56 0 32 -4 45 -14 45 -26 0 -46 -30 -46 -71 0 -32 -4 -39
-19 -39 -20 0 -31 18 -31 51 0 24 -5 24 -41 -2 -23 -16 -35 -19 -57 -11 l-27
9 -3 256 -2 256 191 96 c105 52 195 95 200 95 5 0 9 -125 9 -279z m2906 204
c190 -90 227 -110 232 -124 4 -13 -40 5 -161 65 -49 24 -92 44 -96 44 -3 0 -6
-29 -6 -64 0 -70 -5 -82 -32 -72 -11 5 -14 9 -6 14 6 4 13 24 14 45 3 29 -1
42 -16 53 -10 8 -22 14 -27 14 -4 0 -8 -69 -9 -152 -3 -300 -1 -278 -25 -278
-18 0 -22 8 -27 48 -7 53 -10 482 -4 482 3 0 76 -34 163 -75z m-326 16 c0 -23
-6 -31 -27 -39 -16 -5 -36 -13 -45 -17 -15 -6 -18 -2 -18 19 0 22 8 30 43 46
23 10 43 19 45 19 1 1 2 -12 2 -28z m-1297 -149 c31 -24 57 -44 57 -47 0 -2
-12 -16 -28 -32 -15 -15 -38 -41 -51 -58 l-23 -30 -38 43 c-39 43 -40 49 -56
187 l-7 60 44 -40 c24 -23 70 -60 102 -83z m86 40 c41 -3 77 1 91 8 44 24 30
1 -26 -41 -66 -48 -62 -49 -165 37 -69 58 -77 76 -14 32 38 -27 57 -33 114
-36z m206 -88 c-4 -28 -18 -54 -41 -80 -33 -37 -36 -38 -47 -20 -7 11 -27 36
-45 57 -19 21 -31 43 -27 48 3 6 25 24 48 40 24 16 58 44 77 61 l35 33 3 -49
c2 -27 1 -68 -3 -90z m-495 95 c0 -11 -5 -29 -10 -40 -8 -13 -7 -19 0 -19 6 0
9 -4 6 -9 -4 -5 -2 -11 2 -13 5 -1 12 -49 15 -106 4 -89 3 -102 -10 -100 -9 2
-18 -3 -21 -11 -3 -8 0 -11 6 -7 14 8 25 -11 15 -26 -8 -14 -9 -18 -12 -58 -1
-21 -3 -22 -11 -9 -5 9 -8 26 -5 37 2 12 -1 24 -6 28 -5 3 -8 2 -7 -3 3 -11
-25 -53 -35 -53 -4 0 -5 5 -1 12 4 7 3 8 -5 4 -7 -5 -9 -16 -5 -28 4 -13 2
-18 -4 -14 -7 4 -6 -4 1 -23 6 -17 15 -28 19 -25 4 3 8 -4 8 -16 0 -11 7 -23
15 -26 8 -4 13 -10 10 -14 -3 -5 0 -12 6 -16 8 -4 7 -9 -2 -15 -10 -6 -11 -9
-1 -9 6 0 12 -7 12 -15 0 -8 4 -15 9 -15 6 0 8 -9 6 -20 -2 -11 0 -22 6 -25 5
-4 9 -13 9 -21 0 -8 -4 -13 -9 -10 -8 5 -92 144 -140 232 l-23 41 48 45 47 45
-47 32 c-32 22 -44 36 -38 44 5 7 26 55 46 107 23 60 47 103 64 117 33 28 42
29 42 2z m1500 -8 c0 -24 -19 -39 -59 -47 -29 -6 -33 -4 -29 12 1 10 19 27 38
36 44 23 50 22 50 -1z m-1665 -132 c-14 -24 -28 -51 -31 -60 -3 -9 -17 -16
-32 -16 -38 0 -188 -77 -183 -94 34 -131 43 -180 36 -196 -6 -15 -10 -11 -20
22 -8 24 -15 34 -18 25 -2 -8 -9 -31 -15 -50 -5 -19 -33 -100 -60 -180 -58
-166 -102 -313 -102 -342 0 -15 5 -19 20 -15 32 8 23 -1 -15 -17 -51 -22 -128
-103 -144 -153 -16 -49 -27 -54 -41 -17 -21 54 -11 139 34 291 76 252 214 639
240 672 11 14 347 183 353 177 2 -1 -8 -23 -22 -47z m1235 -131 c0 -6 -7 -19
-15 -28 -23 -25 -36 -77 -21 -83 7 -3 18 -25 25 -48 7 -24 21 -62 31 -84 10
-22 32 -85 50 -140 17 -55 35 -107 39 -115 4 -8 18 -49 30 -90 12 -41 27 -86
32 -100 5 -14 11 -40 13 -58 3 -29 1 -32 -18 -26 -37 11 -47 24 -35 46 6 10 8
24 5 31 -2 7 -5 3 -6 -8 -1 -12 -9 -1 -21 29 -11 26 -17 58 -14 70 5 17 4 18
-4 6 -9 -12 -11 -12 -11 -1 0 8 -9 32 -19 55 -28 61 -52 120 -55 136 -2 8 -9
29 -15 45 -7 17 -15 37 -17 45 -10 39 -47 147 -55 162 -5 11 -3 35 6 65 8 26
15 53 15 58 -1 6 -55 35 -121 65 -106 48 -123 59 -140 92 -10 21 -19 42 -19
47 0 6 77 -28 170 -75 94 -46 170 -90 170 -96z m430 152 c0 -21 -18 -33 -62
-44 -23 -5 -28 -3 -28 13 0 12 13 24 38 34 49 21 52 21 52 -3z m-1201 -24 c8
-10 9 -16 1 -21 -6 -3 -8 -10 -5 -15 3 -4 -3 -7 -12 -6 -12 1 -18 -8 -19 -26
-2 -16 2 -28 9 -28 8 0 8 -3 -1 -12 -8 -8 -15 -8 -27 2 -22 18 -19 76 5 100
24 24 34 25 49 6z m1497 -60 c-3 -14 -11 -26 -17 -26 -6 0 -8 7 -5 16 3 9 6
30 7 47 0 30 1 31 11 10 6 -12 8 -33 4 -47z m-1224 42 c8 -21 0 -190 -11 -239
-23 -107 -53 -215 -63 -226 -6 -7 -8 -13 -4 -13 4 0 -3 -18 -14 -40 -19 -37
-50 -55 -50 -29 0 6 22 106 49 222 28 117 56 240 62 275 13 60 22 75 31 50z
m-395 -104 l35 -31 -18 -106 c-10 -58 -19 -105 -20 -104 -1 1 -16 61 -33 132
-17 72 -34 141 -38 155 l-6 25 23 -20 c13 -11 39 -34 57 -51z m1323 40 c0 -19
-8 -28 -35 -40 -19 -7 -39 -14 -45 -14 -16 0 -8 42 10 50 8 4 24 12 35 18 30
16 35 14 35 -14z m-830 -10 c0 -8 -4 -14 -8 -14 -4 0 -8 9 -8 19 0 11 4 17 8
15 4 -3 8 -12 8 -20z m-456 -26 l19 -33 -26 24 c-27 24 -34 41 -19 41 4 0 16
-15 26 -32z m986 -23 c-16 -19 -26 -19 -34 1 -4 12 -2 15 9 11 8 -4 17 -2 21
4 3 6 8 8 11 5 3 -3 0 -12 -7 -21z m-752 -50 c-10 -47 -11 -49 -20 -23 -7 20
-5 33 8 53 9 14 18 24 20 23 1 -2 -2 -26 -8 -53z m-1183 -6 l103 -51 -14 -35
c-12 -27 -98 -171 -136 -227 -5 -8 -206 74 -231 95 -5 4 -3 17 4 30 13 27 162
238 167 239 2 0 50 -23 107 -51z m995 -37 c0 -46 -22 -188 -38 -247 l-9 -30
-12 37 c-10 29 -10 55 -1 115 23 158 60 235 60 125z m1240 48 c0 -5 -9 -10
-21 -10 -11 0 -17 5 -14 10 3 6 13 10 21 10 8 0 14 -4 14 -10z m286 -47 c-10
-10 -19 5 -10 18 6 11 8 11 12 0 2 -7 1 -15 -2 -18z m-1855 -50 c-12 -20 -14
-14 -5 12 4 9 9 14 11 11 3 -2 0 -13 -6 -23z m1552 -19 c18 -20 35 -45 39 -55
6 -16 2 -19 -23 -19 -22 0 -32 -6 -36 -19 -3 -11 -11 -22 -18 -25 -14 -5 -85
42 -85 56 0 14 71 98 82 98 5 0 23 -16 41 -36z m98 -36 c10 -37 -5 -44 -25
-13 -21 31 -20 47 1 43 9 -2 20 -15 24 -30z m-258 -2 c-10 -13 -20 -20 -21
-15 -5 12 17 39 30 39 5 0 1 -11 -9 -24z m-1366 -8 c-3 -8 -6 -5 -6 6 -1 11 2
17 5 13 3 -3 4 -12 1 -19z m-109 -43 c-3 -3 -9 2 -12 12 -6 14 -5 15 5 6 7 -7
10 -15 7 -18z m1942 0 c0 -8 -4 -15 -10 -15 -5 0 -10 7 -10 15 0 8 5 15 10 15
6 0 10 -7 10 -15z m-390 -41 c44 -29 46 -35 28 -64 -10 -16 -10 -24 0 -40 22
-36 14 -60 -14 -42 -29 18 -83 172 -60 172 4 0 24 -12 46 -26z m-2794 -55
c139 -34 260 -103 314 -179 36 -51 12 -56 -39 -7 -80 77 -173 131 -226 131
-19 0 -31 4 -28 9 3 5 0 7 -8 5 -8 -3 -13 -11 -11 -18 3 -11 0 -11 -12 -1 -13
11 -17 10 -23 -4 -5 -14 22 -45 116 -134 67 -64 122 -122 121 -128 0 -26 -26
-11 -65 39 -22 27 -82 89 -134 136 -57 53 -102 105 -117 133 -24 49 -23 64 5
49 10 -5 58 -19 107 -31z m3481 7 c-8 -7 -21 -27 -29 -47 -8 -19 -55 -74 -104
-121 -49 -48 -105 -108 -124 -132 -34 -44 -60 -59 -60 -33 1 17 81 102 160
167 90 76 98 90 60 110 -46 25 -195 -45 -281 -132 -32 -32 -54 -47 -60 -41
-16 16 54 96 125 143 99 64 395 145 313 86z m-507 -37 c0 -10 -4 -19 -10 -19
-5 0 -10 12 -10 26 0 14 4 23 10 19 6 -3 10 -15 10 -26z m130 4 c0 -5 -13 -17
-27 -27 l-27 -20 20 27 c18 26 34 35 34 20z m-2607 -43 c-7 -28 -13 -25 -13 6
0 14 4 23 9 20 5 -3 7 -15 4 -26z m-540 -74 c3 3 10 -4 17 -15 6 -12 7 -21 3
-21 -11 0 -53 43 -53 54 0 6 7 3 14 -6 7 -10 16 -15 19 -12z m2872 -39 c17 -9
65 -32 109 -51 91 -41 184 -129 229 -216 31 -60 51 -167 42 -228 -7 -46 -25
-48 -25 -2 0 87 -45 180 -86 180 -17 0 -19 -83 -4 -145 5 -22 14 -88 20 -147
11 -101 10 -111 -11 -168 -27 -74 -35 -81 -38 -32 -1 20 -6 125 -11 232 -8
171 -13 207 -38 290 -24 79 -65 170 -77 170 -2 0 8 -35 21 -77 24 -79 25 -94
0 -74 -8 6 -25 14 -37 16 -55 10 -131 141 -165 282 l-7 28 24 -21 c13 -12 38
-28 54 -37z m-2223 10 c-6 -12 -20 -54 -31 -93 -11 -38 -31 -86 -44 -105 -21
-31 -106 -88 -133 -89 -14 0 -6 41 24 119 12 30 20 57 18 59 -13 12 -86 -155
-86 -197 0 -10 -6 -36 -14 -58 -8 -24 -17 -103 -20 -194 -8 -200 -16 -283 -26
-273 -18 21 -40 112 -40 168 0 34 7 99 16 146 30 162 31 170 20 179 -34 27
-86 -67 -102 -182 -9 -68 -24 -39 -24 48 0 185 104 341 277 415 43 19 98 46
123 61 49 31 59 30 42 -4z m2368 13 c0 -5 -4 -10 -9 -10 -6 0 -13 5 -16 10 -3
6 1 10 9 10 9 0 16 -4 16 -10z m-669 -10 c20 -11 27 -50 8 -50 -5 0 -7 -5 -3
-12 5 -8 2 -9 -9 -5 -10 3 -17 2 -17 -3 0 -6 5 -10 11 -10 5 0 8 -3 5 -8 -4
-7 -13 -81 -21 -187 -18 -207 -37 -400 -41 -404 -3 -3 -7 5 -11 17 l-5 22
-522 0 -522 0 -12 -45 c-7 -25 -12 -50 -12 -56 0 -8 148 -10 540 -7 438 3 540
1 540 -9 0 -19 -1068 -19 -1092 0 -11 8 -21 51 -32 142 -9 72 -27 216 -41 320
-29 225 -31 262 -8 287 15 17 48 18 620 18 398 0 611 -4 624 -10z m-2301 -20
c0 -5 -5 -10 -11 -10 -5 0 -7 5 -4 10 3 6 8 10 11 10 2 0 4 -4 4 -10z m-149
-106 c79 -23 187 -83 214 -118 33 -43 48 -87 35 -100 -5 -5 -10 -23 -10 -38 0
-15 -4 -28 -10 -28 -14 0 -26 53 -13 57 13 5 -9 54 -32 73 -17 14 -18 11 -15
-44 2 -50 -24 -45 -28 7 -4 44 -27 68 -37 38 -5 -18 -13 -13 -66 42 l-60 62
41 -65 c22 -36 58 -85 79 -110 21 -25 36 -50 34 -56 -5 -14 -77 0 -110 22 -30
19 -33 18 -33 -8 -1 -22 -1 -22 -15 4 -28 50 -51 189 -46 266 1 16 6 15 72 -4z
m3726 -49 c-5 -48 -16 -85 -44 -137 -39 -75 -61 -91 -135 -101 -44 -6 -42 4
13 63 27 29 84 112 124 180 17 29 -26 -12 -78 -75 -48 -57 -50 -58 -44 -27 4
18 2 32 -3 32 -13 0 -30 -35 -30 -62 0 -13 -7 -33 -15 -44 -15 -18 -16 -16
-13 28 l3 47 -27 -26 c-19 -18 -28 -37 -28 -57 0 -17 -7 -39 -14 -49 -12 -15
-14 -10 -20 38 -4 40 -2 64 8 84 17 32 73 84 115 106 48 24 148 59 185 64 5 0
6 -28 3 -64z m-2629 -134 c10 -6 -2 -17 -41 -39 -86 -48 -146 -139 -147 -221
-1 -26 -1 -25 -36 12 -37 40 -38 47 -6 115 21 48 69 91 127 118 53 25 81 29
103 15z m1538 -2 c60 -15 145 -96 169 -162 l18 -48 -31 -32 c-31 -30 -32 -31
-32 -9 0 41 -30 118 -58 148 -15 16 -53 46 -84 65 -74 47 -68 59 18 38z
m-2013 -40 c-21 -36 -45 -58 -95 -88 l-37 -22 11 33 c14 42 34 66 78 89 53 28
64 25 43 -12z m2498 -20 c20 -20 38 -48 41 -62 7 -36 -9 -26 -69 41 -43 49
-47 58 -30 58 12 0 38 -17 58 -37z m-1957 -16 c3 -16 8 -56 11 -90 l7 -63 -34
0 -33 -1 27 -23 c15 -13 31 -25 37 -27 6 -2 13 -19 17 -36 5 -26 3 -33 -9 -33
-9 0 -19 5 -22 10 -3 6 -16 10 -27 10 -20 0 -20 -1 -4 -19 10 -11 31 -25 47
-31 32 -14 43 -56 12 -46 -10 3 -31 8 -48 12 -47 11 -122 51 -149 80 -69 76
-20 205 99 260 63 30 62 30 69 -3z m1427 -4 c52 -26 86 -71 100 -133 11 -49
10 -58 -8 -93 -11 -21 -35 -48 -53 -61 -36 -24 -167 -68 -177 -59 -12 13 8 37
47 57 62 32 45 54 -21 26 -13 -6 -15 -1 -11 25 3 22 14 37 38 51 42 25 43 38
3 38 -30 0 -31 2 -25 33 3 17 8 52 12 77 10 80 12 81 95 39z m-2419 -121 c61
-26 138 -117 138 -164 0 -15 -3 -15 -24 5 l-24 22 13 -63 c8 -35 25 -94 38
-132 23 -61 23 -66 6 -50 -11 10 -33 46 -51 81 -28 58 -48 79 -48 52 0 -16
-17 -1 -33 29 -40 73 -127 245 -127 249 0 8 63 -8 112 -29z m3428 27 c0 -3
-21 -26 -46 -51 -32 -33 -65 -87 -115 -189 -38 -78 -79 -151 -89 -160 -11 -10
-20 -16 -20 -14 0 3 18 59 41 124 55 165 55 165 14 125 -19 -19 -35 -30 -35
-24 0 22 62 114 92 135 43 31 158 70 158 54z m-2870 -40 c0 -8 -3 -15 -8 -15
-4 0 -6 -17 -4 -37 4 -42 -27 -139 -43 -132 -13 5 -7 90 8 108 28 33 12 39
-21 7 -31 -32 -36 -44 -40 -97 -4 -55 -8 -64 -48 -106 -51 -53 -60 -45 -51 41
10 98 67 178 162 229 38 20 45 21 45 2z m2259 -4 c60 -31 123 -107 141 -172
11 -36 2 -37 -27 -1 l-23 27 20 -54 c11 -30 17 -57 14 -60 -16 -16 -94 128
-94 173 0 8 -17 29 -39 49 -66 59 -63 74 8 38z m-1942 -221 c33 -17 91 -37
129 -46 122 -29 216 -64 369 -139 160 -79 480 -256 503 -279 11 -11 11 -22 2
-55 -6 -23 -8 -46 -5 -51 11 -17 -13 -20 -49 -5 -21 9 -66 29 -102 45 -35 17
-67 30 -70 30 -3 0 -82 36 -177 81 -95 44 -181 84 -192 89 -109 48 -147 64
-227 96 -92 36 -309 114 -316 114 -2 0 -1 14 3 30 4 17 4 30 1 30 -13 0 -56
-82 -71 -136 -21 -72 -32 -85 -41 -50 -23 93 28 203 115 248 29 15 57 28 61
28 4 0 34 -14 67 -30z m-294 -43 c-11 -12 -26 -32 -32 -45 -13 -25 -74 -54
-96 -45 -9 3 -22 0 -30 -7 -21 -17 -20 3 2 36 22 34 83 72 131 83 47 10 51 7
25 -22z m2258 -13 c36 -22 69 -59 69 -76 0 -5 -19 1 -42 13 -24 12 -44 21 -45
20 -14 -7 -93 60 -93 79 0 13 69 -9 111 -36z m-271 -25 c7 -16 11 -31 9 -33
-8 -8 -249 -106 -359 -145 -63 -23 -152 -60 -197 -82 -45 -21 -87 -39 -92 -39
-6 0 -40 14 -74 30 -35 17 -69 30 -75 30 -16 0 -62 22 -62 30 0 12 311 148
375 165 33 8 77 15 100 15 47 0 209 39 280 68 57 23 73 16 95 -39z m1 -102
c-10 -9 -11 -8 -5 6 3 10 9 15 12 12 3 -3 0 -11 -7 -18z m-1781 -32 c0 -5 -5
-3 -10 5 -5 8 -10 20 -10 25 0 6 5 3 10 -5 5 -8 10 -19 10 -25z m1760 -5 c-24
-15 -37 -11 -16 5 11 8 22 12 25 9 3 -3 -1 -9 -9 -14z m-1735 0 c3 -5 1 -10
-4 -10 -6 0 -11 5 -11 10 0 6 2 10 4 10 3 0 8 -4 11 -10z m-227 -109 c34 -83
94 -137 197 -178 11 -5 -61 -9 -169 -11 -167 -2 -192 0 -215 15 l-26 18 63 5
c59 5 89 21 76 42 -3 4 -47 8 -97 8 -97 1 -104 4 -151 58 -19 22 -19 22 -1 16
13 -5 16 -4 11 4 -4 7 -14 12 -23 12 -18 0 -63 38 -63 52 0 4 85 8 189 8 l188
0 21 -49z m2547 38 c-4 -6 -34 -39 -68 -75 l-61 -64 -98 0 c-89 0 -98 -2 -98
-19 0 -21 34 -31 104 -31 l41 -1 -24 -19 c-20 -17 -38 -20 -127 -20 -57 0
-104 2 -104 4 0 2 15 26 33 54 40 59 54 121 32 138 -9 7 -13 19 -9 28 5 14 30
16 196 16 132 0 187 -3 183 -11z m-1045 -270 c0 -5 -9 -26 -20 -46 -11 -21
-20 -45 -20 -55 0 -42 -9 -48 -53 -32 -23 8 -45 20 -49 27 -9 13 -11 151 -3
159 8 7 145 -43 145 -53z m-1235 -7 c-66 -56 -82 -62 -182 -67 l-99 -5 -44 33
-45 32 180 5 c99 3 184 7 190 8 6 1 6 -1 0 -6z m1943 -36 c-41 -29 -54 -33
-95 -30 -30 2 -53 10 -60 21 -29 38 -18 43 94 43 l108 0 -47 -34z m-1608 9 c0
-29 -60 -55 -130 -55 -103 0 -139 -14 -192 -73 -26 -28 -50 -48 -54 -44 -13
13 15 82 44 110 31 29 104 46 202 47 25 0 56 7 70 14 34 19 60 19 60 1z m988
1 c15 -7 72 -16 128 -19 142 -7 166 -22 199 -127 10 -30 -13 -17 -25 15 -14
37 -89 65 -194 71 -102 7 -156 26 -156 55 0 23 12 24 48 5z m-850 -41 c57 -23
57 -48 -3 -62 l-44 -10 -6 31 c-4 17 -9 40 -12 50 -4 13 -1 17 8 14 8 -3 33
-14 57 -23z m-578 -57 c-1 -35 -17 -40 -59 -19 -22 12 -41 24 -41 26 0 3 23 5
50 5 33 0 50 -4 50 -12z m1930 2 c0 -5 -12 -10 -26 -10 -14 0 -23 4 -19 10 3
6 15 10 26 10 10 0 19 -4 19 -10z m-470 -149 c0 -14 -13 -20 -72 -37 -265 -73
-607 -84 -843 -26 -37 9 -70 22 -72 28 -2 7 24 14 69 19 40 4 100 11 133 15
94 11 785 11 785 1z"/>
<path d="M1524 3463 c7 -51 19 -70 51 -75 15 -2 21 3 23 21 6 40 -7 70 -38 86
-42 22 -43 20 -36 -32z"/>
<path d="M1524 3359 c-3 -5 -3 -27 1 -49 5 -32 12 -41 37 -49 17 -6 33 -11 35
-11 2 0 3 21 1 46 -3 41 -6 47 -35 59 -21 9 -35 10 -39 4z"/>
<path d="M1530 3181 c0 -34 4 -51 13 -51 6 0 22 -3 35 -6 20 -6 22 -3 22 39 0
34 -4 46 -17 50 -10 2 -26 8 -35 12 -16 6 -18 1 -18 -44z"/>
<path d="M1530 3051 c0 -42 3 -49 23 -55 44 -12 48 -8 45 36 -3 36 -7 43 -35
55 l-33 13 0 -49z"/>
<path d="M3385 3492 c-40 -23 -45 -30 -45 -76 0 -38 1 -38 31 -32 17 3 38 6
45 6 10 0 14 15 14 54 0 30 -3 57 -8 60 -4 2 -21 -3 -37 -12z"/>
<path d="M1013 3168 c-19 -9 -23 -19 -23 -55 0 -23 4 -43 8 -43 22 0 44 30 49
68 6 44 2 47 -34 30z"/>
<path d="M897 3102 c-20 -22 -23 -92 -4 -92 29 1 47 28 47 69 0 45 -15 54 -43
23z"/>
<path d="M800 3057 c-21 -10 -26 -21 -28 -60 l-3 -48 30 16 c28 14 31 20 31
60 0 25 -1 45 -2 45 -2 0 -14 -6 -28 -13z"/>
<path d="M1012 3010 c-16 -14 -22 -29 -22 -59 0 -45 5 -48 38 -25 16 11 22 25
22 54 0 47 -8 54 -38 30z"/>
<path d="M896 2944 c-16 -16 -23 -94 -8 -94 4 0 18 7 30 16 16 11 22 25 22 55
0 43 -16 51 -44 23z"/>
<path d="M798 2902 c-24 -14 -28 -24 -28 -59 0 -48 -1 -47 35 -31 22 10 25 17
25 60 0 26 -1 48 -2 47 -2 0 -15 -8 -30 -17z"/>
<path d="M1013 2848 c-19 -9 -23 -19 -23 -59 0 -46 1 -48 23 -40 21 8 33 37
36 89 1 24 -4 26 -36 10z"/>
<path d="M915 2798 c-28 -16 -35 -28 -35 -65 0 -26 4 -33 19 -33 29 0 43 24
39 69 -3 36 -5 39 -23 29z"/>
<path d="M788 2736 c-22 -16 -26 -102 -5 -92 6 3 20 9 30 12 13 5 17 17 17 50
0 47 -11 54 -42 30z"/>
<path d="M1011 2682 c-19 -15 -22 -26 -19 -75 l3 -57 27 25 c31 29 43 64 34
100 -8 30 -16 31 -45 7z"/>
<path d="M2137 2993 c3 -7 6 -13 8 -13 2 0 5 6 8 13 3 8 -1 14 -8 14 -7 0 -11
-6 -8 -14z"/>
<path d="M2097 2902 c-17 -18 -14 -32 6 -32 6 0 7 3 4 6 -3 4 -2 15 4 25 12
24 7 24 -14 1z"/>
<path d="M1348 2743 c-15 -17 -48 -77 -48 -86 0 -9 132 -68 143 -64 19 7 58
93 51 111 -9 24 -67 56 -101 56 -17 0 -37 -8 -45 -17z m78 -21 c17 -11 23 -61
8 -73 -18 -15 -54 -1 -63 24 -16 40 21 72 55 49z"/>
<path d="M1240 2631 c0 -5 14 -14 30 -21 17 -7 56 -28 86 -46 52 -31 74 -36
74 -14 0 9 -160 90 -179 90 -6 0 -11 -4 -11 -9z"/>
<path d="M1220 2588 c0 -13 147 -98 169 -98 6 0 11 6 11 14 0 7 -39 32 -86 55
-96 46 -94 46 -94 29z"/>
<path d="M2419 2065 c-83 -45 -82 -159 3 -209 48 -29 108 -12 147 43 69 97
-45 223 -150 166z m95 -31 c21 -8 21 -24 0 -24 -9 0 -14 -8 -13 -17 6 -66 -7
-77 -69 -60 -36 10 -42 15 -42 38 0 49 70 84 124 63z"/>
<path d="M2453 1955 c5 -14 29 -13 34 2 3 7 -4 11 -16 10 -12 -1 -20 -6 -18
-12z"/>
<path d="M1306 1485 c-25 -19 -9 -19 24 0 14 8 19 14 10 14 -8 0 -24 -6 -34
-14z"/>
<path d="M1170 1220 c-13 -8 -13 -10 2 -10 9 0 20 5 23 10 8 13 -5 13 -25 0z"/>
<path d="M1387 1124 c-16 -16 -6 -35 16 -32 12 2 22 10 22 18 0 16 -26 25 -38
14z"/>
<path d="M3761 1230 c-10 -5 -9 -8 2 -13 7 -3 19 -2 26 3 10 5 9 8 -2 13 -7 3
-19 2 -26 -3z"/>
<path d="M3845 1230 c-3 -5 -2 -10 4 -10 5 0 13 5 16 10 3 6 2 10 -4 10 -5 0
-13 -4 -16 -10z"/>
<path d="M870 4060 c0 -5 7 -10 15 -10 8 0 15 5 15 10 0 6 -7 10 -15 10 -8 0
-15 -4 -15 -10z"/>
<path d="M532 1768 c-10 -30 -10 -31 3 -14 13 17 21 46 12 46 -1 0 -8 -15 -15
-32z"/>
<path d="M543 1725 c0 -8 5 -15 10 -15 5 0 7 -7 3 -15 -3 -9 0 -15 9 -15 20 0
19 17 -3 41 -15 15 -19 16 -19 4z"/>
<path d="M4341 1623 c-10 -26 -10 -27 4 -9 8 11 15 23 15 28 0 15 -7 8 -19
-19z"/>
<path d="M610 1610 c0 -5 5 -10 10 -10 6 0 10 5 10 10 0 6 -4 10 -10 10 -5 0
-10 -4 -10 -10z"/>
<path d="M4311 1563 c-10 -26 -10 -27 4 -9 8 11 15 23 15 28 0 15 -7 8 -19
-19z"/>
<path d="M4201 1367 c-13 -21 -12 -21 5 -5 10 10 16 20 13 22 -3 3 -11 -5 -18
-17z"/>
<path d="M4169 1323 c-13 -16 -12 -17 4 -4 16 13 21 21 13 21 -2 0 -10 -8 -17
-17z"/>
<path d="M4112 1243 c-22 -32 -79 -101 -127 -153 l-87 -95 86 88 c91 93 189
217 172 217 -3 0 -23 -26 -44 -57z"/>
<path d="M990 1056 c0 -2 8 -10 18 -17 15 -13 16 -12 3 4 -13 16 -21 21 -21
13z"/>
<path d="M3869 973 c-13 -16 -12 -17 4 -4 16 13 21 21 13 21 -2 0 -10 -8 -17
-17z"/>
<path d="M1107 939 c12 -12 24 -21 27 -18 2 2 -8 13 -22 23 l-27 19 22 -24z"/>
<path d="M3809 923 c-13 -16 -12 -17 4 -4 16 13 21 21 13 21 -2 0 -10 -8 -17
-17z"/>
</g>
</svg>
